<svg xmlns="http://www.w3.org/2000/svg" viewBox="0 0 100 100">
  <!-- Light beige background with rounded corners -->
  <rect width="100" height="100" fill="#F5F5DC" rx="12" ry="12"/>
  
  <!-- Outer shield shape (filled border) with rounded edges -->
  <path d="M 50 12 
           C 50 12, 35 16, 32 18 
           C 20 22, 15 28, 15 35 
           C 15 45, 18 55, 28 72 
           C 35 82, 42 88, 50 93 
           C 58 88, 65 82, 72 72 
           C 82 55, 85 45, 85 35 
           C 85 28, 80 22, 68 18 
           C 65 16, 50 12, 50 12 Z" 
        fill="#1a1a1a"/>
  
  <!-- Inner shield shape (cutout for light background) with rounded edges -->
  <path d="M 50 20 
           C 50 20, 38 23, 36 25 
           C 26 28, 23 33, 23 38 
           C 23 47, 25 55, 34 69 
           C 40 78, 45 82, 50 86 
           C 55 82, 60 78, 66 69 
           C 75 55, 77 47, 77 38 
           C 77 33, 74 28, 64 25 
           C 62 23, 50 20, 50 20 Z" 
        fill="#F5F5DC"/>
</svg>
